<?xml version="1.0" standalone="no"?><!DOCTYPE svg PUBLIC "-//W3C//DTD SVG 1.1//EN" "http://www.w3.org/Graphics/SVG/1.1/DTD/svg11.dtd"><svg t="1613822352428" class="icon" viewBox="0 0 1024 1024" version="1.1" xmlns="http://www.w3.org/2000/svg" p-id="1572" xmlns:xlink="http://www.w3.org/1999/xlink" width="200" height="200"><defs><style type="text/css"></style></defs><path d="M561.148922 18.934138l66.768075 60.383211 88.013866-18.909414c36.798981-7.905363 73.604143 13.34455 85.156234 49.164889l27.630655 85.677489 85.677489 27.630656c35.8224 11.55209 57.072313 48.357252 49.164889 85.156233l-18.909414 88.013867 60.383212 66.768074c25.246891 27.914976 25.246891 70.414802 0 98.329779l-60.383212 66.768075 18.909414 88.013866c7.905363 36.798981-13.34455 73.604143-49.164889 85.156234l-85.677489 27.630655-27.630655 85.677489c-11.55209 35.8224-48.357252 57.072313-85.156234 49.164889l-88.013866-18.909414-66.768075 60.383212c-27.914976 25.246891-70.414802 25.246891-98.329779 0l-66.768074-60.383212-88.013867 18.909414c-36.798981 7.905363-73.604143-13.34455-85.156233-49.164889l-27.630656-85.677489-85.677489-27.630655c-35.8224-11.55209-57.072313-48.357252-49.164889-85.156234l18.909414-88.013866L18.934138 561.148922c-25.246891-27.914976-25.246891-70.414802 0-98.329779l60.383211-66.768074-18.909414-88.013867c-7.905363-36.798981 13.34455-73.604143 49.164889-85.156233l85.677489-27.630656 27.630656-85.677489c11.55209-35.8224 48.357252-57.072313 85.156233-49.164889l88.013867 18.909414L462.819143 18.934138c27.914976-25.24483 70.414802-25.24483 98.329779 0z" fill="#FFB357" p-id="1573"></path><path d="M511.984033 899.289137c-213.560181 0-387.305104-173.744923-387.305104-387.305104S298.423852 124.678929 511.984033 124.678929s387.305104 173.744923 387.305104 387.305104-173.744923 387.305104-387.305104 387.305104z" fill="#FCE3A0" p-id="1574"></path><path d="M334.829316 511.984033c0-177.156777 119.563209-326.90541 282.229911-372.815029-33.426273-9.434104-68.67179-14.492136-105.075194-14.492136-213.560181 0-387.305104 173.744923-387.305104 387.305104s173.744923 387.305104 387.305104 387.305105c36.403404 0 71.64892-5.058031 105.075194-14.492136-162.666702-45.905498-282.22991-195.654132-282.229911-372.810908z" fill="#FFCE71" p-id="1575"></path><path d="M290.242409 494.95361a60.185423 47.92871 0 1 0 120.370846 0 60.185423 47.92871 0 1 0-120.370846 0Z" fill="#FF8E9E" p-id="1576"></path><path d="M735.211131 497.151948a60.185423 47.92871 0 1 0-120.370845 0 60.185423 47.92871 0 1 0 120.370845 0Z" fill="#FF8E9E" p-id="1577"></path><path d="M379.094817 408.969137a15.452234 15.452234 0 0 0-15.452234 15.452234v20.602979a15.452234 15.452234 0 0 0 30.904468 0v-20.602979a15.452234 15.452234 0 0 0-15.452234-15.452234zM642.812951 408.969137a15.452234 15.452234 0 0 0-15.452235 15.452234v20.602979a15.452234 15.452234 0 0 0 30.904469 0v-20.602979a15.452234 15.452234 0 0 0-15.452234-15.452234zM551.613863 468.169737a15.446053 15.446053 0 0 0-20.605039 7.274912c-3.432456 7.178078-10.901036 11.815809-19.024791 11.815809s-15.592335-4.637731-19.024791-11.815809a15.452234 15.452234 0 0 0-27.879952 13.330128c8.537875 17.854542 26.948697 29.39015 46.904743 29.390149s38.368928-11.535608 46.904742-29.390149a15.452234 15.452234 0 0 0-7.274912-20.60504z" fill="#313D40" p-id="1578"></path></svg>